<svg width="24" height="24" viewBox="0 0 24 24" fill="none" xmlns="http://www.w3.org/2000/svg">
    <g id="icon-mypage-record">
        <path id="Rectangle 24348" d="M7.93066 2.55957C7.93066 1.62193 8.69077 0.861816 9.62842 0.861816L14.3713 0.861816C15.309 0.861816 16.0691 1.62193 16.0691 2.55957V2.9541C16.0691 3.89175 15.309 4.65186 14.3713 4.65186L9.62842 4.65186C8.69077 4.65186 7.93066 3.89175 7.93066 2.9541V2.55957Z" fill="#000000"/>
        <path id="Subtract" fill-rule="evenodd" clip-rule="evenodd" d="M5.94102 3.23321C3.75456 3.25957 1.99023 5.0402 1.99023 7.23291L1.99023 18.0019C1.99023 20.211 3.78109 22.0019 5.99023 22.0019L18.0101 22.0019C20.2192 22.0019 22.0101 20.211 22.0101 18.0019L22.0101 7.23291C22.0101 5.04007 20.2456 3.25936 18.0589 3.2332C17.9164 5.14524 16.3199 6.65224 14.3715 6.65224H9.62848C7.68006 6.65224 6.0836 5.14524 5.94102 3.23321ZM7.95345 3.23291L16.0465 3.23291C15.9136 4.03805 15.2143 4.65214 14.3715 4.65214H9.62848C8.78571 4.65214 8.08636 4.03805 7.95345 3.23291ZM6.20128 11.4014C6.20128 10.8491 6.64899 10.4014 7.20128 10.4014L16.7987 10.4014C17.351 10.4014 17.7987 10.8491 17.7987 11.4014V11.5001C17.7987 12.0524 17.351 12.5001 16.7987 12.5001L7.20128 12.5001C6.64899 12.5001 6.20128 12.0524 6.20128 11.5001V11.4014ZM7.20128 15.2205C6.64899 15.2205 6.20128 15.6682 6.20128 16.2205V16.3192C6.20128 16.8715 6.64899 17.3192 7.20128 17.3192H16.7987C17.351 17.3192 17.7987 16.8715 17.7987 16.3192V16.2205C17.7987 15.6682 17.351 15.2205 16.7987 15.2205L7.20128 15.2205Z" fill="#000000"/>
    </g>
</svg>
