<svg width="30" height="29" viewBox="0 0 30 29" fill="none" xmlns="http://www.w3.org/2000/svg">
<path d="M0.375 5.59832V18.8837C0.375 20.2027 0.888016 21.4677 1.80119 22.4004C2.71437 23.3331 3.9529 23.857 5.24433 23.857H7.49622C8.0485 23.857 8.49622 24.3047 8.49622 24.857V27.1981C8.49622 27.9449 9.28506 28.4282 9.95039 28.089L18.0379 23.9661C18.1786 23.8944 18.3342 23.857 18.4921 23.857H24.7557C25.3951 23.857 26.0283 23.7284 26.6191 23.4785C27.2099 23.2285 27.7466 22.8622 28.1988 22.4004C29.112 21.4677 29.625 20.2027 29.625 18.8837V5.59832C29.625 4.27932 29.112 3.01433 28.1988 2.08165C27.2856 1.14897 26.0471 0.625 24.7557 0.625H5.24433C3.9529 0.625 2.71437 1.14897 1.80119 2.08165C0.888016 3.01433 0.375 4.27932 0.375 5.59832Z" fill="#000000"/>
<path d="M8 9H22" stroke="white" stroke-width="3" stroke-miterlimit="10" stroke-linecap="round"/>
<path d="M8 16H15" stroke="white" stroke-width="3" stroke-miterlimit="10" stroke-linecap="round"/>
</svg>
