<svg width="20" height="20" viewBox="0 0 20 20" fill="none" xmlns="http://www.w3.org/2000/svg">
    <g id="Group 20835">
        <path id="Subtract" fill-rule="evenodd" clip-rule="evenodd" d="M18.0579 9.46192C18.0704 9.64249 18.0764 9.82354 18.076 10.0047C18.0756 10.1733 18.0695 10.3418 18.0579 10.5098C18.0191 11.0745 18.2644 11.637 18.7549 11.9194C19.3878 12.2838 19.6064 13.0917 19.2436 13.7255L17.861 16.1412C17.4974 16.7764 16.6865 16.9949 16.0529 16.6284C15.5692 16.3485 14.9673 16.4124 14.5029 16.7232C14.2 16.926 13.8838 17.1081 13.5565 17.2683C13.0498 17.5164 12.6889 18.0097 12.6889 18.5739C12.6889 19.3089 12.0931 19.9047 11.3581 19.9047H8.59772C7.88713 19.9047 7.31109 19.3287 7.31109 18.6181C7.31109 18.0726 6.96235 17.5954 6.47153 17.3574C6.13426 17.1939 5.80866 17.0072 5.49706 16.7986C5.03265 16.4878 4.43076 16.4239 3.94706 16.7038C3.31347 17.0704 2.5026 16.8519 2.13898 16.2166L0.756927 13.8019C0.393833 13.1676 0.612617 12.359 1.24605 11.9943C1.73612 11.7121 1.98202 11.1504 1.94278 10.5863C1.9176 10.2242 1.9176 9.86073 1.94278 9.4986C1.98202 8.93447 1.73612 8.37283 1.24605 8.09065C0.612617 7.72591 0.393833 6.91734 0.756927 6.28296L2.13899 3.86832C2.5026 3.23303 3.31347 3.01453 3.94706 3.3811C4.43076 3.66096 5.03265 3.59708 5.49706 3.28625C5.8 3.0835 6.11617 2.90139 6.44344 2.74115C6.95016 2.49305 7.31109 1.99974 7.31109 1.43554C7.31109 0.700555 7.90691 0.104736 8.64189 0.104736H11.3802C12.1029 0.104736 12.6889 0.690666 12.6889 1.41345C12.6889 1.96828 13.0437 2.45355 13.5425 2.69658C13.8748 2.85848 14.1956 3.04289 14.5029 3.24854C14.9673 3.55936 15.5692 3.62325 16.0529 3.34339C16.6865 2.97681 17.4974 3.19532 17.861 3.83061L19.2436 6.24625C19.6064 6.88007 19.3878 7.68794 18.7549 8.05236C18.2644 8.33477 18.0191 8.89729 18.0579 9.46192ZM12.8287 10.0046C12.8287 11.5668 11.5623 12.8332 10.0001 12.8332C8.43791 12.8332 7.17152 11.5668 7.17152 10.0046C7.17152 8.44242 8.43791 7.17603 10.0001 7.17603C11.5623 7.17603 12.8287 8.44242 12.8287 10.0046Z" fill="#000000"/>
    </g>
</svg>
